<?xml version="1.0" encoding="UTF-8"?><svg xmlns="http://www.w3.org/2000/svg" xmlns:xlink="http://www.w3.org/1999/xlink" version="1.1" id="Layer_1" x="0px" y="0px" viewBox="0 0 24 24" xml:space="preserve"><circle fill="#2D98D4" cx="12" cy="12" r="12"/><path opacity="0.2" fill="#FFF" d="M12 .25c6.585 0 11.926 5.306 11.994 11.875 0-.042.006-.083.006-.125 0-6.627-5.373-12-12-12S0 5.373 0 12c0 .042.006.083.006.125C.074 5.555 5.415.25 12 .25z"/><path opacity="0.1" fill="#010101" d="M12 23.75C5.415 23.75.074 18.444.006 11.875c0 .042-.006.083-.006.125 0 6.627 5.373 12 12 12s12-5.373 12-12c0-.042-.006-.083-.006-.125C23.926 18.445 18.585 23.75 12 23.75z"/><g fill="#FFF"><path d="M12 6c-.551 0-1 .449-1 1s.449 1 1 1 1-.449 1-1-.449-1-1-1z"/><path d="M8 6c-.551 0-1 .449-1 1s.449 1 1 1 1-.449 1-1-.449-1-1-1z"/><path d="M16 8c.551 0 1-.449 1-1s-.449-1-1-1-1 .449-1 1 .449 1 1 1z"/><path d="M12 10c-.551 0-1 .449-1 1s.449 1 1 1 1-.449 1-1-.449-1-1-1z"/><path d="M8 10c-.551 0-1 .449-1 1s.449 1 1 1 1-.449 1-1-.449-1-1-1z"/><path d="M16 10c-.551 0-1 .449-1 1s.449 1 1 1 1-.449 1-1-.449-1-1-1z"/><path d="M12 14c-.551 0-1 .449-1 1s.449 1 1 1 1-.449 1-1-.449-1-1-1z"/><path d="M8 14c-.551 0-1 .449-1 1s.449 1 1 1 1-.449 1-1-.449-1-1-1z"/><path d="M16 14c-.551 0-1 .449-1 1s.449 1 1 1 1-.449 1-1-.449-1-1-1z"/><path d="M12 18c-.551 0-1 .449-1 1s.449 1 1 1 1-.449 1-1-.449-1-1-1z"/></g><linearGradient id="SVGID_1_" gradientUnits="userSpaceOnUse" x1="1.1217111" y1="6.9273705" x2="22.8782883" y2="17.0726299"><stop offset="0" stop-color="#FFF" stop-opacity="0.2"/><stop offset="1" stop-color="#FFF" stop-opacity="0"/></linearGradient><circle fill="url(#SVGID_1_)" cx="12" cy="12" r="12"/><metadata><rdf:RDF xmlns:rdf="http://www.w3.org/1999/02/22-rdf-syntax-ns#" xmlns:rdfs="http://www.w3.org/2000/01/rdf-schema#" xmlns:dc="http://purl.org/dc/elements/1.1/"><rdf:Description about="https://iconscout.com/legal#licenses" dc:title="pad,dial,touch,numerick,keyboard" dc:description="pad,dial,touch,numerick,keyboard" dc:publisher="Iconscout" dc:date="2017-10-27" dc:format="image/svg+xml" dc:language="en"><dc:creator><rdf:Bag><rdf:li>Those Icons</rdf:li></rdf:Bag></dc:creator></rdf:Description></rdf:RDF></metadata></svg>