<?xml version="1.0" encoding="UTF-8" standalone="no"?><svg xmlns="http://www.w3.org/2000/svg" xmlns:xlink="http://www.w3.org/1999/xlink" width="16px" height="17px" viewBox="0 0 16 17" version="1.1"><title>call [#185]</title><g id="Page-1" stroke="none" stroke-width="1" fill="none" fill-rule="evenodd"><g id="Dribbble-Light-Preview" transform="translate(-382.000000, -7321.000000)" fill="#000"><g id="icons" transform="translate(56.000000, 160.000000)"><path d="M342 7162.428l-1.43-1.428-1.429 1.428-1.43-1.428-1.43 1.428 1.43 1.429-1.43 1.428 1.43 1.43 1.43-1.43 1.43 1.43 1.429-1.43-1.43-1.428 1.43-1.429zm-1.73 11.106c-.703-.378-1.414-.81-2.149-1.11-1.419-.579-1.323 1.133-2.338 1.687-.659.362-1.588-.292-2.163-.654a10.212 10.212 0 0 1-2.636-2.428c-.378-.492-1.216-1.417-1.113-2.107.164-1.095 1.46-1.15 1.09-2.49-.199-.715-.553-1.422-.82-2.113-.356-.926-.502-1.52-1.54-1.47-.75.038-1.248.358-1.71.958-1.246 1.624-1.057 3.814-.22 5.594 1.186 2.521 3.22 4.896 5.393 6.432 1.478 1.044 3.425 1.993 5.214 2.154 1.31.118 3.143-.59 3.612-2.012l-.08.24.08-.24.044-.131-.043.128c.413-1.253.462-1.856-.622-2.438zm.664 2.31z" id="call-[#185]"/></g></g></g><metadata><rdf:RDF xmlns:rdf="http://www.w3.org/1999/02/22-rdf-syntax-ns#" xmlns:rdfs="http://www.w3.org/2000/01/rdf-schema#" xmlns:dc="http://purl.org/dc/elements/1.1/"><rdf:Description about="https://iconscout.com/legal#licenses" dc:title="call" dc:description="call" dc:publisher="Iconscout" dc:date="2017-09-15" dc:format="image/svg+xml" dc:language="en"><dc:creator><rdf:Bag><rdf:li>Alexandru Stoica</rdf:li></rdf:Bag></dc:creator></rdf:Description></rdf:RDF></metadata></svg>