<?xml version="1.0" encoding="UTF-8" standalone="no"?><svg xmlns="http://www.w3.org/2000/svg" xmlns:xlink="http://www.w3.org/1999/xlink" width="20px" height="20px" viewBox="0 0 20 20" version="1.1"><title>call [#189]</title><g id="Page-1" stroke="none" stroke-width="1" fill="none" fill-rule="evenodd"><g id="Dribbble-Light-Preview" transform="translate(-220.000000, -7319.000000)" fill="#000"><g id="icons" transform="translate(56.000000, 160.000000)"><path d="M183.995 7161.01a2.004 2.004 0 0 0-2.002-2.002c-.779-.005.05-.002-5.009-.008a1 1 0 0 0-1.009.991.97.97 0 0 0 .981.982l2.402.024c.446 0 .656.526.341.841l-3.63 3.631a1 1 0 0 0 1.414 1.414l3.632-3.632c.315-.315.866-.079.866.366l.005 2.386c0 .552.47 1.021 1.022 1.021a1 1 0 0 0 .992-1.008l-.005-5.006zm-5.879 13.568c-.695-.374-1.398-.8-2.125-1.097-1.404-.573-1.309 1.121-2.313 1.67-.652.357-1.57-.29-2.14-.648a10.123 10.123 0 0 1-2.608-2.403c-.374-.487-1.203-1.403-1.1-2.086.161-1.084 1.444-1.138 1.077-2.464-.196-.71-.547-1.409-.81-2.093-.353-.917-.497-1.504-1.525-1.454-.74.036-1.234.353-1.69.948-1.233 1.607-1.047 3.774-.218 5.537 1.173 2.495 3.185 4.847 5.335 6.367 1.462 1.034 3.388 1.973 5.158 2.132 1.296.117 3.11-.584 3.573-1.991l-.079.238.08-.238c.045-.142.07-.213.08-.245l-.08.242c.408-1.241.457-1.838-.615-2.415zm.535 2.656c-.01.031-.012.036 0 0zm.16-.483c.007-.024.008-.026 0 0z" id="call-[#189]"/></g></g></g><metadata><rdf:RDF xmlns:rdf="http://www.w3.org/1999/02/22-rdf-syntax-ns#" xmlns:rdfs="http://www.w3.org/2000/01/rdf-schema#" xmlns:dc="http://purl.org/dc/elements/1.1/"><rdf:Description about="https://iconscout.com/legal#licenses" dc:title="call" dc:description="call" dc:publisher="Iconscout" dc:date="2017-09-15" dc:format="image/svg+xml" dc:language="en"><dc:creator><rdf:Bag><rdf:li>Alexandru Stoica</rdf:li></rdf:Bag></dc:creator></rdf:Description></rdf:RDF></metadata></svg>