<?xml version="1.0" encoding="UTF-8" standalone="no"?><svg xmlns="http://www.w3.org/2000/svg" xmlns:xlink="http://www.w3.org/1999/xlink" width="20px" height="20px" viewBox="0 0 20 20" version="1.1"><title>call [#190]</title><g id="Page-1" stroke="none" stroke-width="1" fill="none" fill-rule="evenodd"><g id="Dribbble-Light-Preview" transform="translate(-180.000000, -7319.000000)" fill="#000"><g id="icons" transform="translate(56.000000, 160.000000)"><path d="M142.82 7165.203l-2.403-.024a.488.488 0 0 1-.34-.84l3.63-3.632a1 1 0 0 0-1.414-1.414l-3.633 3.632c-.315.315-.866.08-.865-.366l-.006-2.386c0-.552-.469-1.02-1.022-1.02a.999.999 0 0 0-.99 1.007l.003 5.006c0 1.103.898 2.001 2.002 2.001.78.005-.049.003 5.01.01a1 1 0 0 0 1.01-.992.97.97 0 0 0-.983-.982m-4.703 9.375c-.694-.374-1.398-.8-2.125-1.097-1.404-.573-1.309 1.12-2.313 1.67-1.424.78-6.058-3.736-5.849-5.137.162-1.084 1.445-1.139 1.078-2.464-.196-.71-.547-1.409-.81-2.093-.353-.917-.497-1.505-1.525-1.454-.74.036-1.234.353-1.69.947-1.233 1.607-1.047 3.775-.218 5.538 2.328 4.95 7.078 8.191 10.493 8.5 1.296.116 3.11-.586 3.573-1.992l-.079.238.08-.239.08-.244-.08.241c.408-1.24.457-1.837-.615-2.414m.535 2.656c-.012.036-.01.031 0 0m.16-.483c.007-.024.008-.026 0 0" id="call-[#190]"/></g></g></g><metadata><rdf:RDF xmlns:rdf="http://www.w3.org/1999/02/22-rdf-syntax-ns#" xmlns:rdfs="http://www.w3.org/2000/01/rdf-schema#" xmlns:dc="http://purl.org/dc/elements/1.1/"><rdf:Description about="https://iconscout.com/legal#licenses" dc:title="call" dc:description="call" dc:publisher="Iconscout" dc:date="2017-09-15" dc:format="image/svg+xml" dc:language="en"><dc:creator><rdf:Bag><rdf:li>Alexandru Stoica</rdf:li></rdf:Bag></dc:creator></rdf:Description></rdf:RDF></metadata></svg>